# xmcd CD database file
#
# Track frame offsets:
#	150
#	13769
#	27397
#	40342
#	54304
#	66435
#	80242
#	91967
#	105158
#	116295
#	128318
#	141500
#	155567
#	168778
#	183018
#	195031
#	208406
#	219448
#
# Disc length: 3085 seconds
#
# Revision: 1
# Processed by: cddbd v1.5PL3 Copyright (c) Steve Scherf et al.
# Submitted via: CDex 1.51
#
DISCID=ec0c0b12
DTITLE=Big Joe Turner - Blues Legends Vol. 1
DYEAR=1900
DGENRE=Blues
TTITLE0=Playboy Blues
TTITLE1=Miss Brown Blues
TTITLE2=I'm Still In The Dark
TTITLE3=Sally Zu-zazz
TTITLE4=Milk and Butter Blues
TTITLE5=Rock Of Gibraltar
TTITLE6=I´m In Sharp When I Hit The Coast
TTITLE7=Nobody In My Mind
TTITLE8=Rocks In My Bed
TTITLE9=S.K. Blues Part 1
TTITLE10=Johnson And Turner Blues
TTITLE11=Howlin´Winds
TTITLE12=Low Down Dog
TTITLE13=I Got My Discharge Papers
TTITLE14=Miss Brown Blues
TTITLE15=I Got Love For Sale
TTITLE16=Sunday Morning Blues
TTITLE17=Mad Blues
EXTD=
EXTT0=
EXTT1=
EXTT2=
EXTT3=
EXTT4=
EXTT5=
EXTT6=
EXTT7=
EXTT8=
EXTT9=
EXTT10=
EXTT11=
EXTT12=
EXTT13=
EXTT14=
EXTT15=
EXTT16=
EXTT17=
PLAYORDER=
